<?xml version="1.0" encoding="UTF-8" standalone="no"?>
<!-- Created with Inkscape (http://www.inkscape.org/) -->

<svg
   width="63.625mm"
   height="48.026001mm"
   viewBox="0 0 63.625 48.026001"
   version="1.1"
   id="svg5"
   sodipodi:docname="Logo_Completa.svg"
   inkscape:version="1.1.1 (3bf5ae0d25, 2021-09-20)"
   xmlns:inkscape="http://www.inkscape.org/namespaces/inkscape"
   xmlns:sodipodi="http://sodipodi.sourceforge.net/DTD/sodipodi-0.dtd"
   xmlns="http://www.w3.org/2000/svg"
   xmlns:svg="http://www.w3.org/2000/svg">
  <sodipodi:namedview
     id="namedview7"
     pagecolor="#505050"
     bordercolor="#ffffff"
     borderopacity="1"
     inkscape:pageshadow="0"
     inkscape:pageopacity="0"
     inkscape:pagecheckerboard="1"
     inkscape:document-units="mm"
     showgrid="false"
     units="mm"
     inkscape:snap-bbox="true"
     inkscape:bbox-paths="true"
     inkscape:bbox-nodes="true"
     inkscape:snap-bbox-edge-midpoints="true"
     inkscape:snap-bbox-midpoints="true"
     inkscape:object-paths="true"
     inkscape:snap-intersection-paths="true"
     inkscape:snap-smooth-nodes="true"
     inkscape:snap-midpoints="true"
     inkscape:zoom="0.1767767"
     inkscape:cx="333.75439"
     inkscape:cy="1349.1597"
     inkscape:window-width="1366"
     inkscape:window-height="705"
     inkscape:window-x="-8"
     inkscape:window-y="-8"
     inkscape:window-maximized="1"
     inkscape:current-layer="layer2"
     inkscape:snap-global="true"
     width="63.625mm"
     showguides="true"
     inkscape:guide-bbox="true" />
  <defs
     id="defs2" />
  <g
     inkscape:groupmode="layer"
     id="layer2"
     inkscape:label="Logo_Completa">
    <g
       id="g1016"
       transform="matrix(1.0000081,0,0,1.0000081,0,37.327847)"
       style="stroke-width:0.999992">
      <path
         id="path25017-28"
         style="font-weight:bold;font-size:14.8167px;line-height:1.25;font-family:'Playfair Display SC';-inkscape-font-specification:'Playfair Display SC Bold';letter-spacing:1.05833px;fill:#7a0000;fill-opacity:1;stroke-width:0.999992;stroke-miterlimit:4;stroke-dasharray:none"
         d="M 8.9958332e-6,9e-6 V 0.296632 C 0.32597645,0.316388 0.56290977,0.355704 0.7110767,0.414971 c 0.15804514,0.05927 0.26222007,0.173142 0.3116088,0.341064 0.059267,0.167923 0.088884,0.439581 0.088884,0.814937 v 7.348906 c 0,0.375357 -0.029617,0.647015 -0.088884,0.814937 -0.049389,0.167924 -0.15356392,0.281281 -0.3116088,0.340548 -0.14816693,0.05927 -0.38510025,0.0991 -0.7110677041668,0.118856 v 0.296106 C 0.06298009,10.486621 0.13044964,10.483231 0.20206388,10.47999 0.70336224,10.4573 1.4161423,10.44588 2.3409513,10.44588 c 0.9581467,0 1.7041884,0.01481 2.2375894,0.04444 V 10.194219 C 4.2426964,10.174465 4.0006542,10.134632 3.852487,10.075363 3.7043203,10.016096 3.6006619,9.902738 3.541395,9.734815 3.538055,9.723455 3.535205,9.710435 3.532095,9.698125 3.488689,9.487848 3.466983,8.901255 3.466983,8.549358 V 5.215711 c 0.021159,0.0019 0.04171,0.0041 0.062012,0.0067 0.2740736,0.0468 0.5313431,0.304323 0.7715292,0.518832 0.064151,0.08767 0.1315752,0.189126 0.2036051,0.304374 l 2.148706,3.481958 c 0.1086554,0.167922 0.162781,0.290981 0.162781,0.370003 0,0.09878 -0.063825,0.168226 -0.1922365,0.207739 -0.1185333,0.03951 -0.3161501,0.06913 -0.5927286,0.08888 v 0.296106 c 0.029341,-0.0015 0.059425,-0.0022 0.088883,-0.0036 v 0.0036 c 0.6598118,-0.02711 1.3281773,-0.0411 2.0045288,-0.04341 0.312221,9.53e-4 0.6146755,0.0037 0.9048543,0.0088 0.2562061,0.0074 0.4834134,0.01858 0.6759276,0.03462 v -0.0186 c 0.1775206,0.0055 0.3506601,0.0114 0.5188311,0.0186 V 10.194219 C 9.9767288,10.095441 9.774004,9.976974 9.6159594,9.838685 9.4579148,9.700396 9.3052399,9.517588 9.1570727,9.290398 L 6.560332,5.245684 9.1570727,1.200452 C 9.3052396,0.973263 9.4579142,0.790455 9.6159594,0.652166 9.7740043,0.513877 9.9767291,0.39541 10.223674,0.296632 V 9e-6 c -0.168172,0.0072 -0.3413104,0.01367 -0.5188313,0.01912 V 9e-6 c -0.192514,0.01604 -0.4197217,0.02778 -0.6759276,0.03514 -0.2901786,0.0051 -0.5926336,0.0073 -0.9048543,0.0083 C 7.4477091,0.041149 6.779343,0.027159 6.119532,3.9e-5 v 0.0036 C 6.090075,0.002239 6.059988,0.001439 6.030649,3.9e-5 v 0.296623 c 0.276578,0.01975 0.4741945,0.04937 0.5927286,0.08888 0.1284121,0.03951 0.1922362,0.108447 0.1922365,0.207223 0,0.07902 -0.054127,0.202597 -0.162781,0.37052 L 4.504127,4.445243 C 4.3999415,4.611939 4.2603085,4.705831 4.1511771,4.757885 c -0.056207,0.02232 -0.113089,0.04263 -0.1710489,0.05994 -8.466e-4,2.5e-4 -0.00175,2.64e-4 -0.00259,5.29e-4 -0.00748,0.0017 -0.2864101,0.0668 -0.510563,0.0863 V 1.570995 c 0,-0.375356 0.025027,-0.647015 0.074414,-0.814937 0.059267,-0.167923 0.1629246,-0.281797 0.311092,-0.341064 0.1296464,-0.05186 0.3312774,-0.08847 0.6046142,-0.110071 0.039048,-0.0031 0.079459,-0.0058 0.1214395,-0.0083 V 0 C 4.0451339,0.02963 3.2990922,0.04444 2.3409455,0.04444 1.2840208,0.04444 0.50377092,0.02963 3.2e-6,0 Z M 31.59343,9e-6 v 0.296623 c 0.325967,0.01976 0.562899,0.05907 0.711068,0.118339 0.158046,0.05927 0.261705,0.173142 0.311092,0.341064 0.05927,0.167923 0.08888,0.439581 0.08888,0.814937 v 7.348906 c 0,0.375357 -0.02961,0.647015 -0.08888,0.814937 -0.04939,0.167924 -0.153048,0.281281 -0.311092,0.340548 -0.148169,0.05927 -0.385101,0.0991 -0.711068,0.118856 v 0.296106 c 0.503767,-0.02963 1.264616,-0.04444 2.282032,-0.04444 0.6223,0 1.259059,0.01022 1.910992,0.02997 0.197557,0.0099 0.439598,0.01447 0.726054,0.01447 1.284116,0 2.287005,-0.246633 3.008085,-0.740523 0.721079,-0.503768 1.081587,-1.215085 1.081587,-2.13372 0,-0.67169 -0.301273,-1.254324 -0.903819,-1.748214 -0.602546,-0.49389 -1.546204,-0.790573 -2.830319,-0.889351 v -0.02946 c 0.977902,-0.1778 1.713727,-0.5138 2.207617,-1.00769 0.503769,-0.49389 0.756026,-1.02699 0.756026,-1.599903 0,-0.701323 -0.316082,-1.264556 -0.948262,-1.689302 -0.622302,-0.424745 -1.526127,-0.63717 -2.711463,-0.63717 -0.256823,0 -0.484055,0.0051 -0.681611,0.01499 l -1.644862,0.01447 c -0.997657,0 -1.74829,-0.01481 -2.252057,-0.04444 z m 4.385779,0.296623 c 0.503766,0 0.869383,0.182809 1.096573,0.548287 0.237067,0.365478 0.355534,0.918494 0.355534,1.65933 0,0.730957 -0.128683,1.318699 -0.385506,1.7632 -0.256823,0.434623 -0.706183,0.652156 -1.34824,0.652156 H 35.060401 V 1.570972 c 0,-0.3556 0.02503,-0.622667 0.07441,-0.800468 0.04939,-0.1778 0.13313,-0.300858 0.251663,-0.370003 0.128413,-0.06914 0.326028,-0.103869 0.592731,-0.103869 z M 47.73508,1.27435 c -0.968026,0 -1.832017,0.202725 -2.592607,0.607715 -0.76059,0.395112 -1.353439,0.957828 -1.778185,1.688785 -0.424747,0.72108 -0.637173,1.555971 -0.637173,2.50424 0,0.968024 0.207317,1.802916 0.622187,2.50424 0.414866,0.691446 0.998016,1.219438 1.748729,1.584916 0.750713,0.355601 1.624404,0.533818 2.622063,0.533818 0.968023,0 1.83253,-0.197617 2.593123,-0.592729 0.76059,-0.40499 1.353439,-0.968223 1.778185,-1.689302 0.424746,-0.730958 0.63717,-1.570441 0.63717,-2.51871 0,-0.968024 -0.207833,-1.797807 -0.6227,-2.489253 C 51.691005,2.706746 51.108372,2.178238 50.357659,1.822637 49.606946,1.457158 48.732736,1.27435 47.73508,1.27435 Z m 6.407359,0.192753 v 0.311092 c 0.187679,0.0099 0.335761,0.064 0.444418,0.162781 0.108656,0.09878 0.26644,0.291802 0.473874,0.578259 l 2.473751,3.462838 -2.473751,3.456119 c -0.172863,0.242007 -0.315521,0.416055 -0.427882,0.521932 0,0 -5.29e-4,5.29e-4 -5.29e-4,5.29e-4 -0.132927,0.08024 -0.260392,0.147124 -0.383439,0.201022 -0.03435,0.0075 -0.06955,0.01347 -0.106455,0.01757 v 0.311092 c 0.01069,-4.5e-4 0.01884,-5.82e-4 0.02946,-10e-4 v 10e-4 c 0.01045,-8.73e-4 0.02148,-0.0017 0.03204,-0.0026 0.429971,-0.01777 0.795493,-0.03144 1.093472,-0.04082 0.04499,-2.65e-4 0.08769,-10e-4 0.133842,-10e-4 0.908757,0 1.644582,0.01481 2.207618,0.04444 v -0.02687 c 0.144637,0.0039 0.282122,0.0078 0.444418,0.0124 0.07902,0.0099 0.187788,0.01447 0.326077,0.01447 v -0.311093 c -0.325969,0 -0.562901,-0.01481 -0.711067,-0.04444 -0.14817,-0.03951 -0.222211,-0.103855 -0.222211,-0.192753 0,-0.06915 0.03932,-0.157995 0.11834,-0.266651 l 1.289328,-1.810225 1.28881,1.810225 c 0.07902,0.108656 0.118856,0.197506 0.118856,0.266651 0,0.0889 -0.07404,0.153239 -0.222208,0.192753 -0.148167,0.02963 -0.385617,0.04444 -0.711586,0.04444 v 0.311093 c 0.138289,0 0.247057,-0.0046 0.326077,-0.01447 0.162177,-0.0046 0.299871,-0.0085 0.444418,-0.0124 v 0.02687 c 0.563036,-0.02963 1.298861,-0.04444 2.207618,-0.04444 0.04627,0 0.08927,7.67e-4 0.134358,10e-4 0.29773,0.0094 0.662942,0.02308 1.09244,0.04082 0.01077,8.73e-4 0.02191,0.0017 0.03256,0.0026 v -10e-4 c 0.01079,4.5e-4 0.0191,5.82e-4 0.02997,10e-4 v -0.311092 c -0.03693,-0.0041 -0.07207,-0.01057 -0.106455,-0.01809 -0.123031,-0.0539 -0.251047,-0.120275 -0.383955,-0.200505 0,0 -5.29e-4,-5.29e-4 -5.29e-4,-5.29e-4 C 63.021756,9.854244 62.879098,9.680196 62.706235,9.438189 l -2.473751,-3.45612 2.473751,-3.462837 c 0.207434,-0.286457 0.365734,-0.479481 0.47439,-0.578259 0.108657,-0.09878 0.256739,-0.152904 0.444418,-0.162781 V 1.4671 c -0.184216,0.0074 -0.344022,0.01313 -0.503846,0.01912 v -0.0041 c -0.02424,0.0026 -0.05108,0.0049 -0.07751,0.0072 -0.623647,0.02311 -1.051544,0.03552 -1.285708,0.03669 -0.130233,-3.18e-4 -0.259948,-0.0011 -0.386025,-0.0026 -7.93e-4,-10e-6 -0.0019,9e-6 -0.0026,0 -2.65e-4,-4e-6 -7.94e-4,4e-6 -0.0011,0 -0.154903,-0.0021 -0.342429,-0.0057 -0.547253,-0.01033 -0.281453,-0.0074 -0.552778,-0.0174 -0.811319,-0.03101 v 0.0098 C 59.89607,1.48857 59.791602,1.48577 59.668616,1.48207 59.589596,1.47217 59.485937,1.46708 59.357524,1.46708 v 0.311092 c 0.325967,0 0.563417,0.01992 0.711586,0.05943 0.138285,0.03951 0.207222,0.103338 0.207222,0.192236 0,0.06914 -0.03473,0.153403 -0.10387,0.252181 L 58.883653,4.084493 57.594325,2.282019 c -0.06914,-0.09878 -0.103354,-0.183037 -0.103354,-0.252181 0,-0.0889 0.06893,-0.152723 0.207224,-0.192236 0.148167,-0.03951 0.385098,-0.05943 0.711068,-0.05943 V 1.46708 c -0.128413,0 -0.232072,0.0051 -0.311092,0.01499 -0.122801,0.0037 -0.227095,0.0066 -0.340548,0.0098 v -0.0098 c -0.258543,0.01361 -0.529868,0.02365 -0.811321,0.03101 -0.204856,0.0047 -0.392329,0.0082 -0.547253,0.01033 -0.0013,1.8e-5 -0.0024,-1.8e-5 -0.0036,0 -0.126246,0.0014 -0.25613,0.0023 -0.386541,0.0026 -0.234113,-0.0012 -0.661767,-0.01359 -1.285192,-0.03669 -0.02656,-0.0024 -0.05317,-0.0046 -0.07751,-0.0072 v 0.0041 C 54.486281,1.48022 54.326716,1.47448 54.14236,1.4671 Z m -42.504898,0.01499 v 0.296106 c 0.325968,0.01976 0.562901,0.05907 0.711068,0.118339 0.158047,0.05927 0.261706,0.173142 0.311092,0.341064 0.05927,0.167923 0.08888,0.439581 0.08888,0.814937 v 5.867343 c 0,0.375356 -0.02962,0.647015 -0.08888,0.814937 -0.04939,0.167923 -0.147939,0.281281 -0.296106,0.340548 -0.148167,0.05927 -0.390209,0.0991 -0.726054,0.118855 v 0.296106 c 1.027291,-0.02963 2.558174,-0.04444 4.593002,-0.04444 1.52118,0 2.603222,0.01481 3.24528,0.04444 -0.06914,-0.721079 -0.10387,-1.362946 -0.10387,-1.92598 0,-0.434624 0.01481,-0.790541 0.04444,-1.067118 H 19.07533 c -0.158044,0.958146 -0.439403,1.639847 -0.844393,2.044836 -0.395112,0.40499 -0.943537,0.607715 -1.644861,0.607715 h -0.636653 c -0.256823,0 -0.449848,-0.01992 -0.578259,-0.05943 C 15.242752,10.040961 15.14931,9.952112 15.090044,9.8237 15.040654,9.685411 15.015634,9.472986 15.015634,9.18653 V 6.104548 h 0.696598 c 0.474135,0 0.829534,0.153191 1.066602,0.459403 0.246944,0.296334 0.405245,0.676761 0.474389,1.141016 h 0.340548 c -0.05927,-0.72108 -0.08888,-1.303713 -0.08888,-1.748214 V 5.364025 c 0,-0.434624 0.01481,-0.820157 0.04444,-1.156002 h -0.340547 c -0.07902,0.424745 -0.237323,0.800061 -0.47439,1.126029 -0.22719,0.31609 -0.567781,0.47439 -1.02216,0.47439 H 15.01563 V 2.785887 c 0,-0.286455 0.02503,-0.493772 0.07441,-0.622184 0.05927,-0.138287 0.152708,-0.227654 0.28112,-0.267167 0.128411,-0.04939 0.321436,-0.0739 0.578259,-0.0739 h 0.54777 c 0.642057,0 1.146057,0.182808 1.511536,0.548287 0.365478,0.3556 0.622328,0.95815 0.770495,1.807641 h 0.340548 c -0.02963,-0.227189 -0.04444,-0.533573 -0.04444,-0.918807 0,-0.523524 0.03472,-1.115857 0.10387,-1.777669 -0.58279,0.02963 -1.565765,0.04444 -2.948657,0.04444 -2.034828,0 -3.565711,-0.01481 -4.593002,-0.04444 z m 9.503813,0 v 0.311092 c 0.148167,0.02963 0.286549,0.103675 0.414962,0.222209 0.12841,0.118533 0.276495,0.320742 0.444418,0.607197 l 2.652033,4.607988 v 1.600419 c 0,0.395112 -0.03421,0.686687 -0.103352,0.874365 -0.06915,0.177801 -0.197829,0.300859 -0.385506,0.370004 -0.187679,0.05927 -0.483846,0.0991 -0.888836,0.118855 v 0.296106 c 0.0076,-5.02e-4 0.01746,-0.0011 0.02532,-0.0016 v 0.0016 c 0.505857,-0.02918 1.341228,-0.044 2.498556,-0.04444 1.157599,4.49e-4 1.993143,0.01525 2.499074,0.04444 v -0.0016 c 0.0079,5.03e-4 0.0177,10e-4 0.02532,0.0016 V 10.194223 C 27.918354,10.174473 27.621671,10.134633 27.433991,10.075367 27.246315,10.006227 27.118148,9.883164 27.049002,9.705364 26.979862,9.517686 26.945134,9.22611 26.945134,8.830998 V 7.230579 L 29.597685,2.622592 C 29.765606,2.336136 29.91369,2.133927 30.042101,2.015394 30.170513,1.89686 30.308896,1.822819 30.457062,1.793185 V 1.482093 c -0.178855,0.01442 -0.355364,0.02596 -0.529166,0.03617 v -0.03617 c -0.2667,0.02963 -0.647126,0.04444 -1.141016,0.04444 -0.503767,0 -1.056783,-0.01481 -1.659329,-0.04444 v 0.04444 C 26.797346,1.515023 26.45529,1.500363 26.10074,1.482093 v 0.311092 c 0.296334,0 0.528675,0.02962 0.696598,0.08888 0.167923,0.04939 0.251664,0.153044 0.251664,0.311092 0,0.128411 -0.05412,0.281602 -0.16278,0.459403 L 25.79895,4.546501 24.712195,2.65256 c -0.108657,-0.177801 -0.16278,-0.330992 -0.16278,-0.459403 0,-0.158048 0.08374,-0.261706 0.251664,-0.311092 0.167923,-0.05927 0.400264,-0.08888 0.696597,-0.08888 V 1.482093 c -0.354367,0.01826 -0.696761,0.03293 -1.02681,0.04444 v -0.04444 c -0.602547,0.02963 -1.155563,0.04444 -1.659329,0.04444 -0.49389,0 -0.874316,-0.01481 -1.141016,-0.04444 v 0.03617 c -0.173969,-0.01022 -0.350134,-0.02174 -0.529167,-0.03617 z m 26.534298,0.05891 c 0.49389,0 0.943763,0.182808 1.348753,0.548287 0.414869,0.355601 0.740651,0.8693 0.97772,1.540991 0.237067,0.671691 0.355534,1.447349 0.355534,2.326473 0,0.869247 -0.108768,1.644388 -0.326078,2.325956 -0.207433,0.67169 -0.508709,1.200198 -0.903822,1.585433 -0.385236,0.375356 -0.834594,0.563273 -1.348237,0.563273 -0.49389,0 -0.948357,-0.178217 -1.363226,-0.533817 C 46.011306,9.53212 45.690631,9.013828 45.453565,8.342138 45.216498,7.670448 45.098031,6.894789 45.098031,6.015665 c 0,-0.869246 0.103658,-1.639797 0.311091,-2.311487 0.217313,-0.681568 0.518586,-1.210077 0.903822,-1.585432 0.395111,-0.385235 0.849062,-0.577743 1.362708,-0.577743 z M 35.060401,5.171272 h 0.622702 c 0.84949,0 1.47144,0.202208 1.86655,0.607198 0.395113,0.40499 0.592731,0.99784 0.592731,1.778186 0,1.728615 -0.686292,2.593124 -2.059308,2.593124 -0.296333,0 -0.518975,-0.02962 -0.667142,-0.08888 C 35.277642,9.99176 35.184202,9.873289 35.134815,9.705366 35.085425,9.537444 35.060405,9.275485 35.060405,8.919885 Z" />
      <path
         id="path25017-1-1-5"
         style="font-weight:bold;font-size:14.8167px;line-height:1.25;font-family:'Playfair Display SC';-inkscape-font-specification:'Playfair Display SC Bold';letter-spacing:1.05833px;fill:#7a0000;fill-opacity:1;stroke-width:0.999991;stroke-miterlimit:4;stroke-dasharray:none"
         d="m 44.255873,-37.327545 c 0.03885,0.660532 0.05792,1.683622 0.05792,3.069436 0,1.049391 -0.01357,1.901461 -0.04066,2.562272 -0.650691,0.02681 -1.547354,0.04065 -2.698465,0.04065 -1.2563,0 -2.233859,-0.01908 -2.933244,-0.05794 v 0.388252 c 0.44035,0.0259 0.757049,0.07779 0.951323,0.155519 0.194267,0.07771 0.330867,0.227024 0.408579,0.447204 0.06477,0.220172 0.09655,0.576041 0.09655,1.068202 v 0.329303 c -0.03914,0.633562 -0.117087,1.096127 -0.23275,1.385314 -0.116575,0.310844 -0.339516,0.514721 -0.669787,0.611856 -0.330269,0.116576 -0.864566,0.174814 -1.602817,0.174814 H 23.138724 c -0.73825,0 -1.272545,-0.05826 -1.602816,-0.174814 -0.330272,-0.09714 -0.554242,-0.301012 -0.670806,-0.611856 -0.116576,-0.291411 -0.193912,-0.758429 -0.232748,-1.39954 h -0.583399 c -0.03886,0.641111 -0.116182,1.107106 -0.232748,1.398526 -0.116576,0.310846 -0.340534,0.51472 -0.670805,0.611855 -0.33027,0.116576 -0.864565,0.174815 -1.602817,0.174815 H 3.0887891 c -0.738248,0 -1.2725447,-0.05826 -1.6028154,-0.174815 -0.1651373,-0.04858 -0.3029707,-0.123636 -0.4146803,-0.225634 -0.027929,-0.02551 -0.054679,-0.05248 -0.0792841,-0.08131 -0.073757,-0.08652 -0.1321138,-0.188347 -0.175837,-0.304912 -0.1165756,-0.29142 -0.1949155,-0.757415 -0.2337649,-1.398524 H 2.705e-5 c 0.00728,0.123853 0.013965,0.255532 0.020318,0.396382 0.044628,0.985952 0.067089,2.388862 0.067089,4.207772 0,1.884491 -0.029129,3.350781 -0.087407,4.399871 h 0.5823804 c 0.038845,-0.660538 0.1171853,-1.135561 0.2337649,-1.426983 0.058298,-0.145704 0.1434035,-0.27 0.25510925,-0.371993 0.027929,-0.02549 0.057157,-0.04939 0.08843,-0.07216 0.093799,-0.06831 0.2024033,-0.125014 0.3262563,-0.168717 0.3302726,-0.09714 1.5933052,-0.145351 2.3315532,-0.145351 h 6.5566079 c -0.0037,0.04225 -0.009,0.08247 -0.01416,0.122988 -0.09225,0.536753 -0.5946395,1.040685 -1.0153545,1.511344 -6.51e-4,7.24e-4 -0.0015,0.0014 -0.002,0.002 -0.172946,0.126646 -0.373036,0.261226 -0.600675,0.403497 l -6.8483066,4.226069 c -0.3302707,0.213705 -0.5722984,0.320156 -0.7277214,0.320156 -0.19428615,0 -0.33086665,-0.126548 -0.40858105,-0.379104 -0.077678,-0.233139 -0.135936,-0.621802 -0.1747814,-1.165781 H 1.5295e-4 c 0.00275,0.05765 0.00433,0.11693 0.00708,0.174814 h -0.00708 c 0.053321,1.297489 0.080838,2.612478 0.085381,3.942495 -0.00185,0.614442 -0.00728,1.209644 -0.017308,1.780686 -0.014555,0.503975 -0.036544,0.950841 -0.068093,1.329489 h 0.036583 c -0.010817,0.3487843 -0.022422,0.6899953 -0.036583,1.0204333 h 0.5823804 c 0.1942861,-0.48569 0.42727415,-0.8844093 0.69926295,-1.1952513 0.2719828,-0.310844 0.6315322,-0.612139 1.0783705,-0.903555 l 7.9561492,-5.106246 7.955136,5.106246 c 0.446836,0.291416 0.806379,0.592711 1.078368,0.903555 0.271989,0.310842 0.504983,0.7095613 0.699263,1.1952513 h 0.583399 c -0.01416,-0.330438 -0.02689,-0.671649 -0.03761,-1.0204333 h 0.03761 c -0.03155,-0.378648 -0.05464,-0.825514 -0.06912,-1.329415 -0.01003,-0.571041 -0.01436,-1.166243 -0.01632,-1.780685 0.0045,-1.330017 0.03206,-2.645007 0.08538,-3.942501 h -0.0071 c 0.0028,-0.05787 0.0043,-0.117166 0.0071,-0.174814 H 20.049 c -0.03884,0.543979 -0.0971,0.932642 -0.174814,1.16578 -0.07771,0.252556 -0.213298,0.379103 -0.407564,0.379103 -0.155421,0 -0.39847,-0.106466 -0.728741,-0.320155 l -6.848245,-4.226069 c -0.325958,-0.203719 -0.511139,-0.476025 -0.61389,-0.690121 -0.04557,-0.114353 -0.08593,-0.230565 -0.120942,-0.348614 -0.0055,-0.02348 -0.130697,-0.563949 -0.168717,-1.001126 h 6.556608 c 0.738252,0 1.272547,0.04821 1.602817,0.145351 0.330271,0.116575 0.554239,0.321461 0.670805,0.612872 0.102001,0.254996 0.174008,0.650536 0.216488,1.188137 0.0061,0.07681 0.01141,0.156287 0.01632,0.238848 0,0 0,0.001 0,0.001 h 0.583399 c 0,0 0,-0.001 0,-0.001 0.03887,-0.659991 0.116241,-1.135725 0.232748,-1.426985 0.116576,-0.291417 0.340534,-0.495292 0.670804,-0.611857 0.330271,-0.09712 0.864566,-0.145351 1.602816,-0.145351 h 14.45381 c 0.738251,0 1.272548,0.04821 1.602817,0.145351 0.330271,0.116575 0.553222,0.32044 0.669787,0.611857 0.115652,0.289089 0.193598,0.760411 0.23275,1.412756 v 0.331337 c 0,0.492157 -0.0318,0.84803 -0.09655,1.068202 -0.07771,0.220176 -0.214306,0.369494 -0.408579,0.447206 -0.194286,0.07769 -0.510973,0.128574 -0.951323,0.154497 v 0.38927 c 0.699385,-0.03884 1.676944,-0.05895 2.933244,-0.05895 1.151103,0 2.047774,0.01377 2.698465,0.04066 0.02681,0.650719 0.04066,1.548159 0.04066,2.69948 0,1.256304 -0.01908,2.233863 -0.05792,2.933247 h 0.388254 c 0.0259,-0.440351 0.07781,-0.758067 0.155499,-0.952342 0.07771,-0.194266 0.22601,-0.32985 0.446188,-0.40756 0.220178,-0.06477 0.577062,-0.09758 1.069223,-0.09758 h 9.636212 c 0.49216,0 0.84803,0.03281 1.068202,0.09758 0.220174,0.07771 0.368473,0.213292 0.446191,0.40756 0.07771,0.194286 0.129616,0.511991 0.1555,0.952342 h 0.38927 c -0.03885,-0.699384 -0.05895,-1.676943 -0.05895,-2.933247 0,-1.150721 0.01396,-2.047823 0.04066,-2.698461 0.660866,-0.02712 1.513719,-0.04168 2.563293,-0.04168 1.385814,0 2.408906,0.0201 3.069437,0.05895 v -0.38927 c -0.427407,-0.0259 -0.738765,-0.07677 -0.933037,-0.154497 -0.20722,-0.07771 -0.342802,-0.227026 -0.407562,-0.447206 -0.07771,-0.220174 -0.116891,-0.576045 -0.116891,-1.068202 v -9.636214 c 0,-0.492161 0.03918,-0.84803 0.116891,-1.068202 0.06477,-0.220174 0.200342,-0.369494 0.407562,-0.447206 0.194286,-0.07771 0.50563,-0.129616 0.93303,-0.155519 v -0.388254 c -0.660532,0.03885 -1.683624,0.05794 -3.069438,0.05794 -1.049558,0 -1.902432,-0.01357 -2.563292,-0.04065 -0.0271,-0.660809 -0.04066,-1.512883 -0.04066,-2.56227 0,-1.385814 0.0201,-2.408904 0.05895,-3.069436 h -0.389272 c -0.0259,0.427398 -0.07779,0.737735 -0.1555,0.932009 -0.07771,0.207222 -0.226011,0.343821 -0.446191,0.408581 -0.220172,0.07771 -0.576041,0.115868 -1.068202,0.115868 H 46.3152 c -0.492161,0 -0.849045,-0.03816 -1.069223,-0.115868 -0.220174,-0.06475 -0.368471,-0.201353 -0.446187,-0.408581 -0.07771,-0.194286 -0.129616,-0.504611 -0.1555,-0.932009 z m 2.059167,4.545206 h 4.817596 4.818617 c 0.49216,0 0.84803,0.03281 1.068202,0.09758 0.220173,0.07771 0.368472,0.213294 0.446191,0.407562 0.07771,0.194286 0.129616,0.511989 0.1555,0.95234 0.440351,0.0259 0.758064,0.07779 0.95234,0.15552 0.194266,0.07771 0.329848,0.227026 0.407562,0.447206 0.06477,0.220172 0.09758,0.576041 0.09758,1.068202 v 4.817597 4.818615 c 0,0.492159 -0.03281,0.84803 -0.09758,1.068204 -0.07771,0.220176 -0.213288,0.369492 -0.407562,0.447206 -0.194286,0.07769 -0.511989,0.128573 -0.95234,0.154497 -0.0259,0.427404 -0.07779,0.738755 -0.1555,0.933029 -0.07771,0.20722 -0.226012,0.342806 -0.446191,0.407563 -0.220172,0.07773 -0.576042,0.11689 -1.068202,0.11689 H 51.132636 46.31504 c -0.49216,0 -0.849044,-0.03916 -1.069222,-0.11689 -0.220174,-0.06475 -0.368471,-0.200339 -0.446188,-0.407563 -0.07771,-0.194286 -0.129616,-0.505625 -0.155499,-0.933029 -0.427398,-0.0259 -0.73875,-0.07677 -0.933026,-0.154497 -0.20722,-0.07771 -0.342804,-0.227026 -0.407564,-0.447206 -0.07771,-0.220174 -0.116891,-0.576045 -0.116891,-1.068204 v -4.818615 -4.817597 c 0,-0.492161 0.03916,-0.84803 0.116891,-1.068202 0.06477,-0.220174 0.200342,-0.369494 0.407564,-0.447204 0.194286,-0.07771 0.505628,-0.129616 0.93303,-0.15552 0.0259,-0.440351 0.07781,-0.758066 0.155499,-0.95234 0.07771,-0.194267 0.22601,-0.329848 0.446188,-0.407562 0.220177,-0.06477 0.577062,-0.09758 1.069222,-0.09758 z m -3.128388,7.945988 7.945984,7.945987 7.945986,-7.945987 -7.945986,-7.945988 z" />
    </g>
  </g>
</svg>
