<?xml version="1.0" encoding="UTF-8" standalone="no"?>
<!-- Created with Inkscape (http://www.inkscape.org/) -->

<svg
   width="32.348999mm"
   height="14.285mm"
   viewBox="0 0 32.348999 14.285"
   version="1.1"
   id="svg5"
   sodipodi:docname="Logo_Simbolo.svg"
   inkscape:version="1.1.1 (3bf5ae0d25, 2021-09-20)"
   xmlns:inkscape="http://www.inkscape.org/namespaces/inkscape"
   xmlns:sodipodi="http://sodipodi.sourceforge.net/DTD/sodipodi-0.dtd"
   xmlns="http://www.w3.org/2000/svg"
   xmlns:svg="http://www.w3.org/2000/svg">
  <sodipodi:namedview
     id="namedview7"
     pagecolor="#505050"
     bordercolor="#ffffff"
     borderopacity="1"
     inkscape:pageshadow="0"
     inkscape:pageopacity="0"
     inkscape:pagecheckerboard="1"
     inkscape:document-units="mm"
     showgrid="false"
     units="mm"
     inkscape:snap-bbox="true"
     inkscape:bbox-paths="true"
     inkscape:bbox-nodes="true"
     inkscape:snap-bbox-edge-midpoints="true"
     inkscape:snap-bbox-midpoints="true"
     inkscape:object-paths="true"
     inkscape:snap-intersection-paths="true"
     inkscape:snap-smooth-nodes="true"
     inkscape:snap-midpoints="true"
     inkscape:zoom="2"
     inkscape:cx="41.5"
     inkscape:cy="30.75"
     inkscape:window-width="1366"
     inkscape:window-height="705"
     inkscape:window-x="-8"
     inkscape:window-y="-8"
     inkscape:window-maximized="1"
     inkscape:current-layer="layer2"
     inkscape:snap-global="true"
     width="32.349px"
     showguides="true"
     inkscape:guide-bbox="true"
     height="14.286mm" />
  <defs
     id="defs2" />
  <g
     inkscape:groupmode="layer"
     id="layer2"
     inkscape:label="Logo_Escrita"
     sodipodi:insensitive="true">
    <path
       id="path25017-1-1-5"
       style="font-weight:bold;font-size:14.8167px;line-height:1.25;font-family:'Playfair Display SC';-inkscape-font-specification:'Playfair Display SC Bold';letter-spacing:1.05833px;fill:#7a0000;fill-opacity:1;stroke-width:1;stroke-miterlimit:4;stroke-dasharray:none"
       d="m 22.50079,0 c 0.01975,0.33583087 0.02945,0.85599617 0.02945,1.5605789 0,0.5335369 -0.0069,0.9667508 -0.02067,1.3027237 -0.330828,0.01363 -0.786714,0.020669 -1.371968,0.020669 -0.638735,0 -1.135751,-0.0097 -1.491336,-0.029459 v 0.197397 c 0.223885,0.01317 0.384903,0.039549 0.483677,0.079068 0.09877,0.039509 0.168221,0.1154256 0.207732,0.2273702 0.03293,0.1119416 0.04909,0.2928741 0.04909,0.5431016 v 0.1674259 c -0.0199,0.3221183 -0.05953,0.5572992 -0.118336,0.7043288 -0.05927,0.1580412 -0.172619,0.2616971 -0.340537,0.3110826 -0.167917,0.059268 -0.439567,0.088877 -0.814913,0.088877 h -7.348684 c -0.375345,0 -0.646994,-0.029619 -0.814912,-0.088877 C 10.781464,5.0348981 10.667592,4.9312452 10.608328,4.773204 10.54906,4.6250425 10.509741,4.3875986 10.489993,4.0616425 H 10.193378 C 10.173619,4.3875986 10.13431,4.6245235 10.075043,4.772688 10.015775,4.9307302 9.9019068,5.0343851 9.7339887,5.0837706 9.566071,5.1430388 9.2944217,5.1726479 8.919076,5.1726479 H 1.5703993 c -0.3753446,0 -0.64699469,-0.029619 -0.81491267,-0.088877 C 0.67152916,5.0590714 0.60144945,5.0209125 0.54465315,4.9690531 0.53045358,4.9560835 0.51685639,4.9423739 0.50434676,4.9277143 0.46684789,4.8837257 0.43717859,4.8319572 0.41494926,4.772689 0.35568105,4.6245245 0.31584945,4.3875996 0.29609705,4.0616435 H 0 c 0.0036999,0.062968 0.00709507,0.129919 0.01033498,0.2015319 0.02268931,0.5012829 0.03410542,1.2145573 0.0341054,2.1393374 0,0.9581231 -0.01481127,1.7036226 -0.04444038,2.2370065 h 0.29609702 c 0.0197494,-0.3358338 0.059581,-0.5773485 0.11885221,-0.7255141 0.0296391,-0.074078 0.0729056,-0.1372748 0.12970392,-0.1891313 0.0141996,-0.01296 0.0290576,-0.025109 0.0449571,-0.036689 0.0476886,-0.034729 0.10290725,-0.063558 0.16587634,-0.085777 0.16791903,-0.049389 0.81007711,-0.073898 1.18542161,-0.073898 h 3.333546 c -0.0019,0.021479 -0.00463,0.041929 -0.00723,0.062528 -0.046899,0.2728987 -0.3023306,0.529111 -0.516232,0.7684058 -3.31e-4,3.68e-4 -7.406e-4,6.99e-4 -0.00103,10e-4 -0.087927,0.064388 -0.1896609,0.132814 -0.3053983,0.2051488 L 0.96271097,10.714233 C 0.7947932,10.822886 0.6717396,10.877008 0.592719,10.877008 c -0.098777,0 -0.16822119,-0.06434 -0.20773301,-0.192746 -0.0395088,-0.118533 -0.0691314,-0.316139 -0.0888808,-0.592712 H 0 c 0.00139995,0.02931 0.00221727,0.05945 0.00361725,0.08888 H 0 c 0.02710918,0.659676 0.04109696,1.32825 0.04340689,2.004464 C 0.04246392,12.497292 0.039722,12.799908 0.03462216,13.09024 0.0272224,13.346474 0.01603951,13.573672 0,13.766186 H 0.01860296 C 0.01310312,13.943517 0.00719978,14.116997 0,14.285 h 0.29609702 c 0.098777,-0.246937 0.21723731,-0.449656 0.35552312,-0.607696 0.13828292,-0.158041 0.32108729,-0.311227 0.54827046,-0.45939 l 4.0451089,-2.596145 4.0445924,2.596145 c 0.227183,0.148163 0.4099845,0.301349 0.5482703,0.45939 0.1382858,0.15804 0.2567458,0.360759 0.3555228,0.607696 H 10.49 C 10.4828,14.116997 10.47633,13.943517 10.47088,13.766186 H 10.49 c -0.01604,-0.192514 -0.02778,-0.419712 -0.03514,-0.675908 -0.0051,-0.290332 -0.0073,-0.592948 -0.0083,-0.905346 0.0023,-0.676214 0.0163,-1.344788 0.04341,-2.004467 h -0.0036 c 0.0014,-0.02942 0.0022,-0.05957 0.0036,-0.08888 h -0.296615 c -0.01975,0.276573 -0.04937,0.474179 -0.08888,0.592712 -0.03951,0.128406 -0.1084456,0.192746 -0.2072165,0.192746 -0.079018,0 -0.202591,-0.05413 -0.370509,-0.162775 L 6.0449266,8.5656266 C 5.8792025,8.4620507 5.7850507,8.3236039 5.7328103,8.2147522 5.709641,8.1566139 5.6891167,8.0975267 5.6713172,8.0375075 c -0.0028,-0.01194 -0.066451,-0.2867253 -0.08578,-0.5089976 h 3.3335459 c 0.3753457,0 0.646995,0.024509 0.8149127,0.073898 0.1679181,0.059268 0.2817892,0.1634391 0.3410542,0.3116006 0.05186,0.1296451 0.08847,0.330749 0.110068,0.6040788 0.0031,0.039049 0.0058,0.079458 0.0083,0.1214353 0,0 0,5.18e-4 0,5.18e-4 h 0.296615 c 0,0 0,-5.18e-4 0,-5.18e-4 0.01976,-0.3355558 0.0591,-0.5774305 0.118335,-0.7255141 0.05927,-0.1481645 0.173136,-0.2518194 0.341054,-0.3110846 0.167918,-0.049378 0.439567,-0.073898 0.814912,-0.073898 h 7.348684 c 0.375346,0 0.646996,0.024509 0.814913,0.073898 0.167918,0.059268 0.281272,0.1629201 0.340537,0.3110846 0.0588,0.1469796 0.09843,0.3866114 0.118336,0.7182804 v 0.1684599 c 0,0.2502254 -0.01617,0.43116 -0.04909,0.5431016 -0.03951,0.1119426 -0.108959,0.1878593 -0.207732,0.2273711 -0.09878,0.039499 -0.259792,0.065368 -0.483677,0.078548 v 0.197915 c 0.355585,-0.019749 0.852601,-0.029969 1.491336,-0.029969 0.58525,0 1.04114,0.007 1.371968,0.020669 0.01363,0.3308425 0.02067,0.7871235 0.02067,1.3724845 0,0.638737 -0.0097,1.135752 -0.02945,1.491337 h 0.197398 c 0.01317,-0.223886 0.03956,-0.385421 0.07906,-0.484195 0.03951,-0.09877 0.114909,-0.167704 0.226853,-0.207214 0.111944,-0.03293 0.293393,-0.04961 0.54362,-0.04961 h 4.899295 c 0.250227,0 0.43116,0.01668 0.543101,0.04961 0.111942,0.03951 0.187341,0.108443 0.226855,0.207214 0.03951,0.09878 0.0659,0.260309 0.07906,0.484195 h 0.197915 c -0.01975,-0.355585 -0.02997,-0.8526 -0.02997,-1.491337 0,-0.585056 0.0071,-1.041165 0.02067,-1.3719665 0.336001,-0.01379 0.769613,-0.021189 1.303243,-0.021189 0.704583,0 1.224749,0.01022 1.56058,0.029969 V 9.6497669 C 32.131204,9.6365973 31.972902,9.610738 31.874129,9.5712192 31.768773,9.5317104 31.69984,9.4557927 31.666914,9.3438481 31.627405,9.2319065 31.607485,9.0509719 31.607485,8.8007465 V 3.9014513 c 0,-0.2502275 0.01992,-0.43116 0.05943,-0.5431016 0.03293,-0.1119416 0.101859,-0.1878594 0.207215,-0.2273702 0.09878,-0.039509 0.257075,-0.065898 0.474376,-0.079068 v -0.197397 c -0.335831,0.019749 -0.855997,0.029459 -1.56058,0.029459 -0.533622,0 -0.967245,-0.0069 -1.303243,-0.020669 -0.01378,-0.3359729 -0.02067,-0.7691888 -0.02067,-1.3027237 0,-0.70458273 0.01022,-1.22474803 0.02997,-1.5605789000603 H 29.296067 C 29.282898,0.21730244 29.256518,0.37508468 29.217009,0.4738587 c -0.03951,0.10535682 -0.11491,0.17480773 -0.226855,0.20773374 -0.111941,0.0395088 -0.292874,0.0589082 -0.543101,0.0589082 h -4.899295 c -0.250227,0 -0.431676,-0.0193994 -0.54362,-0.0589082 -0.111942,-0.032919 -0.18734,-0.10237392 -0.226853,-0.20773374 -0.03951,-0.098777 -0.0659,-0.25655626 -0.07906,-0.4738567000603 z m 1.046933,2.3108983 h 2.449388 2.449907 c 0.250227,0 0.43116,0.016679 0.543101,0.049609 0.111942,0.039509 0.187341,0.1084437 0.226855,0.2072147 0.03951,0.098777 0.0659,0.2603082 0.07906,0.4841944 0.223886,0.01317 0.385419,0.039549 0.484194,0.079068 0.09877,0.039509 0.167703,0.1154256 0.207215,0.2273702 0.03293,0.1119416 0.04961,0.2928741 0.04961,0.5431016 v 2.4493891 2.4499061 c 0,0.2502254 -0.01668,0.43116 -0.04961,0.5431016 -0.03951,0.1119426 -0.108441,0.1878593 -0.207215,0.2273711 -0.09878,0.039499 -0.260308,0.065368 -0.484194,0.078548 -0.01317,0.2173034 -0.03955,0.3756019 -0.07906,0.4743759 -0.03951,0.105356 -0.11491,0.174291 -0.226855,0.207215 -0.111941,0.03952 -0.292874,0.05943 -0.543101,0.05943 h -2.449907 -2.449388 c -0.250227,0 -0.431676,-0.01991 -0.54362,-0.05943 -0.111942,-0.03292 -0.18734,-0.101857 -0.226853,-0.207215 -0.03951,-0.09878 -0.0659,-0.2570725 -0.07906,-0.4743759 -0.2173,-0.013171 -0.375599,-0.03903 -0.474374,-0.078549 C 22.11846,9.5317144 22.049526,9.4557967 22.0166,9.3438521 21.977091,9.2319105 21.957172,9.0509759 21.957172,8.8007505 V 6.3508444 3.9014553 c 0,-0.2502275 0.01991,-0.43116 0.05943,-0.5431016 0.03293,-0.1119416 0.101859,-0.1878594 0.207216,-0.2273702 0.09878,-0.039509 0.257074,-0.065898 0.474376,-0.079068 0.01317,-0.2238862 0.03956,-0.3854204 0.07906,-0.4841944 0.03951,-0.098767 0.114909,-0.1677029 0.226853,-0.2072147 0.111944,-0.032929 0.293393,-0.049609 0.54362,-0.049609 z m -1.590552,4.0399421 4.03994,4.0399416 4.039941,-4.0399416 -4.039941,-4.0399421 z" />
  </g>
</svg>
